<?xml version="1.0" encoding="UTF-8"?>
<svg version="1.1" xmlns="http://www.w3.org/2000/svg" width="588" height="543">
<path d="M0 0 C0.78179626 -0.00067474 1.56359253 -0.00134949 2.36907959 -0.00204468 C66.08935877 0.08437158 130.32294797 19.55387933 182 57.25 C182.56525391 57.66217773 183.13050781 58.07435547 183.71289062 58.49902344 C203.36454302 72.9638518 222.19068431 89.80371658 237 109.25 C237.79277344 110.24902344 238.58554687 111.24804688 239.40234375 112.27734375 C281.31338702 165.28344228 301.49550044 233.45857104 293.8125 300.75 C288.57912124 342.57871374 273.83066351 383.97603267 249 418.25 C248.54157715 418.88953613 248.0831543 419.52907227 247.61083984 420.18798828 C232.67729762 440.92312321 215.38536028 460.71829693 195 476.25 C193.7397896 477.24861869 192.48076919 478.24874011 191.22265625 479.25 C137.7404773 521.45783027 69.87855988 543.44668608 2 543.5 C1.21820374 543.50067474 0.43640747 543.50134949 -0.36907959 543.50204468 C-64.08935877 543.41562842 -128.32294797 523.94612067 -180 486.25 C-180.84788086 485.6317334 -180.84788086 485.6317334 -181.71289062 485.00097656 C-194.84215108 475.337031 -206.87659972 464.54347885 -218.4375 453.0625 C-219.26580322 452.24346191 -220.09410645 451.42442383 -220.94750977 450.58056641 C-226.39555323 445.10453359 -231.30604867 439.38148537 -236 433.25 C-236.59079346 432.48228271 -237.18158691 431.71456543 -237.7902832 430.92358398 C-245.54973586 420.74305123 -252.81152853 410.45877628 -259 399.25 C-259.45584473 398.43644043 -259.91168945 397.62288086 -260.38134766 396.78466797 C-294.22651659 335.95257686 -301.42523664 266.60650117 -283.01831055 199.75610352 C-275.4001395 173.38105199 -263.11443386 147.49288447 -247 125.25 C-246.54157715 124.61046387 -246.0831543 123.97092773 -245.61083984 123.31201172 C-230.67729762 102.57687679 -213.38536028 82.78170307 -193 67.25 C-191.7397896 66.25138131 -190.48076919 65.25125989 -189.22265625 64.25 C-135.7404773 22.04216973 -67.87855988 0.05331392 0 0 Z " fill="#4285FE" transform="translate(293,-0.25)"/>
<path d="M0 0 C2.44887931 1.3491199 4.91347078 2.66790678 7.37744141 3.98925781 C18.83489471 10.16439716 18.83489471 10.16439716 23.95166016 13.07519531 C24.93259644 13.63315796 24.93259644 13.63315796 25.93334961 14.20239258 C27.58837891 15.21191406 27.58837891 15.21191406 29.95166016 17.07519531 C30.38916016 20.76269531 30.38916016 20.76269531 29.95166016 24.07519531 C28.30862843 25.71822704 26.2715872 25.39382384 24.01416016 25.57519531 C20.34608551 25.82734474 20.34608551 25.82734474 16.95166016 27.07519531 C14.45607594 27.30997153 11.96195836 27.45670079 9.45947266 27.59863281 C6.54592977 28.15229673 5.26689334 29.27700037 2.95166016 31.07519531 C0.59228516 31.80566406 0.59228516 31.80566406 -1.79833984 32.26269531 C-2.59755859 32.42125 -3.39677734 32.57980469 -4.22021484 32.74316406 C-4.82349609 32.85273437 -5.42677734 32.96230469 -6.04833984 33.07519531 C-6.04833984 33.73519531 -6.04833984 34.39519531 -6.04833984 35.07519531 C-4.74896484 35.17832031 -3.44958984 35.28144531 -2.11083984 35.38769531 C2.76996555 35.92914757 7.48277174 36.99037906 11.95166016 39.07519531 C13.19593533 41.56374566 12.86839158 42.60751378 12.42822266 45.32910156 C12.29416016 46.18439453 12.16009766 47.0396875 12.02197266 47.92089844 C11.87501953 48.81744141 11.72806641 49.71398437 11.57666016 50.63769531 C11.29628822 52.38872189 11.01763127 54.14002396 10.74072266 55.89160156 C10.60311523 56.75156738 10.46550781 57.6115332 10.32373047 58.49755859 C9.85452284 61.74814531 9.55918023 65.00391759 9.30859375 68.27807617 C8.95166016 70.07519531 8.95166016 70.07519531 6.95166016 72.07519531 C8.84676714 72.15680279 10.7429052 72.2146599 12.63916016 72.26269531 C14.22277344 72.31490234 14.22277344 72.31490234 15.83837891 72.36816406 C19.41918692 72.03119969 21.15181001 71.31507543 23.95166016 69.07519531 C25.35658703 66.75842111 25.35658703 66.75842111 26.20166016 64.13769531 C26.51619141 63.28304687 26.83072266 62.42839844 27.15478516 61.54785156 C29.02405198 55.74762657 30.67104603 49.49648179 27.79931641 43.78222656 C26.88797478 42.39628043 25.93911984 41.0339827 24.94775391 39.70410156 C24.4546875 38.89779297 24.4546875 38.89779297 23.95166016 38.07519531 C24.28166016 37.41519531 24.61166016 36.75519531 24.95166016 36.07519531 C30.07854532 41.20208048 31.13275839 42.51741327 31.13916016 49.70019531 C31.15140625 50.40015625 31.16365234 51.10011719 31.17626953 51.82128906 C31.18959298 56.60884956 30.46074949 60.53003297 28.95166016 65.07519531 C32.13400121 63.32065146 32.13400121 63.32065146 34.95166016 61.07519531 C39.20637922 60.60244875 41.46602665 61.68504662 44.95166016 64.07519531 C45.03416016 63.35332031 45.11666016 62.63144531 45.20166016 61.88769531 C45.95166016 59.07519531 45.95166016 59.07519531 47.85009766 56.75097656 C49.99652953 54.01806609 51.09785803 51.68342645 52.32666016 48.45019531 C54.74582613 42.37590317 57.70488878 36.74309861 60.95166016 31.07519531 C62.84960938 31.32470703 62.84960938 31.32470703 64.95166016 32.07519531 C65.92480469 33.82177734 65.92480469 33.82177734 66.58447266 36.08300781 C66.83326172 36.90542969 67.08205078 37.72785156 67.33837891 38.57519531 C67.58201172 39.44144531 67.82564453 40.30769531 68.07666016 41.20019531 C68.45371094 42.46476562 68.45371094 42.46476562 68.83837891 43.75488281 C69.76815212 46.88982497 70.66092742 50.03424676 71.54052734 53.18359375 C72.52400191 56.71150718 72.52400191 56.71150718 73.95166016 60.07519531 C74.18354421 67.37954314 74.18354421 67.37954314 72.95166016 71.07519531 C74.27166016 71.40519531 75.59166016 71.73519531 76.95166016 72.07519531 C76.92845703 71.30175781 76.90525391 70.52832031 76.88134766 69.73144531 C76.63963607 55.78123392 76.63963607 55.78123392 80.01416016 50.37207031 C81.42187037 46.92318028 81.16074986 43.4863318 81.07666016 39.82519531 C81.06763672 39.08011719 81.05861328 38.33503906 81.04931641 37.56738281 C81.02584374 35.73651473 80.98997541 33.90581293 80.95166016 32.07519531 C80.29166016 32.07519531 79.63166016 32.07519531 78.95166016 32.07519531 C78.39478516 31.04394531 77.83791016 30.01269531 77.26416016 28.95019531 C74.53300385 24.17551425 71.58482291 20.16397048 66.95166016 17.07519531 C67.28166016 15.75519531 67.61166016 14.43519531 67.95166016 13.07519531 C73.88422226 11.2414943 78.85998314 10.49231861 84.95166016 12.07519531 C87.45166016 13.45019531 87.45166016 13.45019531 88.95166016 16.07519531 C89.37965621 18.8309658 89.58520309 21.54459355 89.73681641 24.32910156 C90.00369025 27.74023446 91.00568712 30.79582212 91.95166016 34.07519531 C92.15104083 37.7969678 92.04714022 40.72055509 91.07666016 44.32519531 C90.93495611 48.57631669 91.68356137 49.70617185 93.82666016 53.26269531 C97.38176743 59.36069181 97.92938735 64.09638287 97.95166016 71.07519531 C97.95858887 71.91630859 97.96551758 72.75742188 97.97265625 73.62402344 C98.02074509 79.77511993 98.00135115 85.92421487 97.95166016 92.07519531 C97.95166016 94.85584834 99.12129515 95.69253276 100.88916016 97.82519531 C104.06070195 101.8170748 106.93383593 105.92446273 109.70166016 110.20019531 C110.07798584 110.77350586 110.45431152 111.34681641 110.84204102 111.9375 C113.80703576 116.56662368 116.894886 121.40680974 117.01416016 127.01269531 C111.93328479 141.65757135 95.73308046 150.15234683 83.07666016 157.26269531 C80.14544624 158.96279938 77.55854668 160.81355662 74.92041016 162.92675781 C72.95166016 164.07519531 72.95166016 164.07519531 69.73291016 164.97753906 C65.48540786 166.21054335 61.8565346 167.97423117 57.95166016 170.01269531 C44.15606455 177.13513404 44.15606455 177.13513404 37.95166016 178.07519531 C38.50587246 181.58926672 39.3543099 184.02670652 41.26416016 187.01269531 C49.8589349 201.86048008 51.35093883 221.32673091 47.07666016 237.76269531 C46.08994759 241.34044199 45.03083645 244.84769905 43.81103516 248.35253906 C42.30570533 253.12169766 43.67838004 256.75392173 45.70166016 261.13769531 C47.59194565 264.75959269 49.98140697 267.26127124 52.95166016 270.07519531 C54.26416016 272.38769531 54.26416016 272.38769531 54.95166016 274.07519531 C48.40745546 278.9512694 48.40745546 278.9512694 45.40869141 279.76660156 C41.72549936 281.72823802 41.05651657 284.87598367 39.82666016 288.63769531 C39.58818359 289.31638672 39.34970703 289.99507813 39.10400391 290.69433594 C38.61632118 292.09279912 38.13966501 293.49514972 37.67333984 294.90087891 C37.18688862 296.36648602 36.68722153 297.82776435 36.17529297 299.28466797 C34.33771743 304.57259706 33.03407553 309.83661265 31.95166016 315.32519531 C31.61172945 317.00382726 31.27058049 318.68221295 30.92822266 320.36035156 C30.68120605 321.57295654 30.68120605 321.57295654 30.42919922 322.81005859 C29.79643076 325.81150324 29.06269589 328.78509619 28.32666016 331.76269531 C25.76989142 342.71233534 24.80165702 353.87044278 24.39306641 365.08691406 C23.55494974 370.76088975 20.31109097 374.16164297 16.02197266 377.66113281 C11.41956297 380.80466547 6.31388392 382.70701829 0.81884766 383.56347656 C-2.46596612 384.09211367 -5.06484622 384.58564547 -8.04833984 386.07519531 C-10.53091454 389.86384271 -11.88561173 393.71496488 -13.04833984 398.07519531 C-12.05833984 398.40519531 -11.06833984 398.73519531 -10.04833984 399.07519531 C-8.39990234 400.78222656 -8.39990234 400.78222656 -6.67333984 402.88769531 C-1.20080694 409.32596931 4.83221415 413.33363185 12.63916016 416.51269531 C13.68201172 416.94066406 14.72486328 417.36863281 15.79931641 417.80957031 C17.82370593 418.62233637 19.85207778 419.42529111 21.88525391 420.21582031 C23.2175 420.73402344 23.2175 420.73402344 24.57666016 421.26269531 C25.77162109 421.71708984 25.77162109 421.71708984 26.99072266 422.18066406 C28.95166016 423.07519531 28.95166016 423.07519531 30.95166016 425.07519531 C31.07666016 427.70019531 31.07666016 427.70019531 30.95166016 430.07519531 C3.96697719 447.40220227 -44.79960129 444.87644502 -76.04833984 444.07519531 C-75.41844214 440.47814789 -73.91192008 438.15001816 -71.79833984 435.20019531 C-71.16412109 434.31460937 -70.52990234 433.42902344 -69.87646484 432.51660156 C-68.49707881 430.67447278 -67.03987814 428.89025281 -65.54833984 427.13769531 C-62.52769086 423.43740031 -60.29944747 419.44466694 -57.98974609 415.27050781 C-56.04833984 413.07519531 -56.04833984 413.07519531 -52.82568359 412.75488281 C-51.45089844 412.9134375 -51.45089844 412.9134375 -50.04833984 413.07519531 C-49.71833984 411.75519531 -49.38833984 410.43519531 -49.04833984 409.07519531 C-48.38833984 409.07519531 -47.72833984 409.07519531 -47.04833984 409.07519531 C-46.90138672 408.29015625 -46.75443359 407.50511719 -46.60302734 406.69628906 C-45.07613633 399.54447195 -43.28281236 395.14523414 -38.04833984 390.07519531 C-34.80914933 386.48582204 -32.94711281 384.03531996 -33.04833984 379.07519531 C-35.14000665 376.26033914 -35.14000665 376.26033914 -36.78662109 374.55957031 C-38.68025746 372.33176283 -39.19322966 369.85430341 -40.04833984 367.07519531 C-40.84694387 365.58082456 -41.65831188 364.09324701 -42.47802734 362.61035156 C-45.34341328 356.9527078 -46.32102608 351.50082034 -47.17333984 345.26269531 C-48.0264434 336.55061284 -48.0264434 336.55061284 -52.04833984 329.07519531 C-54.09119046 328.4749501 -54.09119046 328.4749501 -56.23583984 328.76269531 C-57.49396484 328.86582031 -58.75208984 328.96894531 -60.04833984 329.07519531 C-60.04833984 329.73519531 -60.04833984 330.39519531 -60.04833984 331.07519531 C-63.268561 332.68530589 -66.55599899 332.5329928 -70.04833984 332.07519531 C-80.92283403 326.63794822 -85.12678551 315.44687187 -90.04833984 305.07519531 C-90.37833984 304.41519531 -90.70833984 303.75519531 -91.04833984 303.07519531 C-91.20644665 300.78557453 -91.32486918 298.49315511 -91.42333984 296.20019531 C-91.81373551 289.20651188 -93.04593321 282.80257899 -95.04833984 276.07519531 C-95.38349609 274.92277344 -95.71865234 273.77035156 -96.06396484 272.58300781 C-97.75167783 266.62474815 -97.75167783 266.62474815 -100.13818359 260.93457031 C-101.73184201 257.67885613 -101.74384698 254.5464082 -101.04833984 251.07519531 C-97.66757522 244.08739442 -91.41112575 240.12722764 -85.04833984 236.07519531 C-83.56333984 235.08519531 -83.56333984 235.08519531 -82.04833984 234.07519531 C-69.8418748 234.7966176 -60.36906277 243.02741637 -51.63037109 250.81738281 C-49.27909996 253.06486146 -49.27909996 253.06486146 -47.04833984 254.07519531 C-46.79785348 251.20068549 -46.79785348 251.20068549 -47.04833984 248.07519531 C-47.77537109 247.37910156 -47.77537109 247.37910156 -48.51708984 246.66894531 C-50.51294832 244.59162322 -50.5303752 243.22310745 -50.73583984 240.38769531 C-50.80158203 239.57945312 -50.86732422 238.77121094 -50.93505859 237.93847656 C-50.97244141 237.32359375 -51.00982422 236.70871094 -51.04833984 236.07519531 C-50.05833984 235.74519531 -49.06833984 235.41519531 -48.04833984 235.07519531 C-48.07154297 234.099375 -48.09474609 233.12355469 -48.11865234 232.11816406 C-48.13669922 230.84585938 -48.15474609 229.57355469 -48.17333984 228.26269531 C-48.19654297 226.998125 -48.21974609 225.73355469 -48.24365234 224.43066406 C-48.04833984 221.07519531 -48.04833984 221.07519531 -46.04833984 218.07519531 C-45.61095288 216.36074642 -45.23985296 214.62851748 -44.92333984 212.88769531 C-44.75576172 211.98664063 -44.58818359 211.08558594 -44.41552734 210.15722656 C-44.23376953 209.12662109 -44.23376953 209.12662109 -44.04833984 208.07519531 C-44.77021484 207.97335937 -45.49208984 207.87152344 -46.23583984 207.76660156 C-52.75472216 206.16404299 -58.5133297 201.4884837 -62.11083984 195.88769531 C-65.74529156 189.5371053 -66.00169424 182.40862439 -64.44677734 175.34082031 C-63.28776494 171.38378806 -61.9675711 167.73007919 -60.04833984 164.07519531 C-61.28583984 163.73488281 -61.28583984 163.73488281 -62.54833984 163.38769531 C-85.39108138 154.82166724 -98.01324422 133.80623431 -108.04833984 113.07519531 C-108.37833984 112.41519531 -108.70833984 111.75519531 -109.04833984 111.07519531 C-109.18249457 108.40283322 -109.09152525 105.75269043 -109.04833984 103.07519531 C-103.14636339 99.88812802 -97.16875983 97.63501032 -90.80615234 95.51660156 C-86.96052821 94.13677803 -83.40441981 92.26998331 -79.77001953 90.4152832 C-74.97955361 88.05657604 -70.04547924 86.04756573 -65.11083984 84.01269531 C-64.1034375 83.59181641 -63.09603516 83.1709375 -62.05810547 82.73730469 C-56.23710868 80.32280763 -50.38113893 78.07295618 -44.44848633 75.94848633 C-41.60704316 74.91462993 -38.82562024 73.77007176 -36.04833984 72.57519531 C-21.56356559 66.48521907 -21.56356559 66.48521907 -13.92333984 65.01269531 C-12.64458984 64.70332031 -11.36583984 64.39394531 -10.04833984 64.07519531 C-9.55333984 62.59019531 -9.55333984 62.59019531 -9.04833984 61.07519531 C-8.05833984 61.07519531 -7.06833984 61.07519531 -6.04833984 61.07519531 C-6.37833984 56.45519531 -6.70833984 51.83519531 -7.04833984 47.07519531 C-14.28471599 48.34473499 -20.79462447 50.84659882 -27.55224609 53.63378906 C-30.04118994 54.65995697 -32.52114034 55.65168915 -35.04833984 56.57519531 C-42.4152384 59.29354871 -49.67509808 62.31415836 -56.95849609 65.24707031 C-59.31943371 66.19582422 -61.6827454 67.13812005 -64.04833984 68.07519531 C-65.17755859 68.52572266 -65.17755859 68.52572266 -66.32958984 68.98535156 C-69.37472736 70.17141056 -71.7502394 71.07519531 -75.04833984 71.07519531 C-75.04833984 71.73519531 -75.04833984 72.39519531 -75.04833984 73.07519531 C-76.15951172 73.4503125 -77.27068359 73.82542969 -78.41552734 74.21191406 C-89.35168907 77.94272879 -89.35168907 77.94272879 -99.67724609 83.09472656 C-103.09431437 84.50771526 -106.37213495 84.71644709 -110.04833984 85.07519531 C-109.82091741 68.14256107 -107.68593997 50.93428365 -99.04833984 36.07519531 C-98.55333984 34.87894531 -98.05833984 33.68269531 -97.54833984 32.45019531 C-93.30501182 22.90270726 -87.74676139 17.89000995 -79.04833984 12.07519531 C-78.46826172 11.68702637 -77.88818359 11.29885742 -77.29052734 10.89892578 C-66.95964403 4.07519531 -66.95964403 4.07519531 -62.04833984 4.07519531 C-62.04833984 3.41519531 -62.04833984 2.75519531 -62.04833984 2.07519531 C-61.52884766 1.82125 -61.00935547 1.56730469 -60.47412109 1.30566406 C-59.77673828 0.96148437 -59.07935547 0.61730469 -58.36083984 0.26269531 C-57.67634766 -0.07375 -56.99185547 -0.41019531 -56.28662109 -0.75683594 C-53.999178 -1.8993653 -53.999178 -1.8993653 -51.80224609 -3.42480469 C-48.20550486 -5.38388077 -44.64900596 -6.2191699 -40.67333984 -7.11230469 C-39.94373047 -7.28955078 -39.21412109 -7.46679688 -38.46240234 -7.64941406 C-24.81113235 -10.80627025 -11.96991501 -6.61768886 0 0 Z " fill="#0A090B" transform="translate(338.04833984375,52.9248046875)"/>
<path d="M0 0 C0 4.62 0 9.24 0 14 C-0.99 14.33 -1.98 14.66 -3 15 C-3.61359375 15.65226562 -4.2271875 16.30453125 -4.859375 16.9765625 C-7.37428954 19.35379923 -8.88491279 19.72642174 -12.25 20.375 C-22.15962788 22.59737978 -31.83099869 26.19001015 -40.80078125 30.95703125 C-43.85386018 32.40493902 -47.01593117 33.53128348 -50.1875 34.6875 C-60.29871208 38.38139812 -70.1324661 42.7064766 -80 47 C-85.3915423 49.33863907 -90.8278269 51.53813875 -96.30664062 53.66210938 C-99.52422727 54.93106394 -102.63904107 56.29179209 -105.71679688 57.87207031 C-109.86211935 59.96011399 -114.0790527 61.82470371 -118.34765625 63.64453125 C-119.12201523 63.97740646 -119.89637421 64.31028168 -120.69419861 64.65324402 C-123.96122769 66.05755115 -127.23057897 67.4564148 -130.49975586 68.85571289 C-139.89365919 72.8803177 -149.23562348 76.97686341 -158.47729492 81.34057617 C-161.92485677 82.96460264 -165.38513228 84.55732908 -168.8515625 86.140625 C-180.90050401 91.6637498 -192.83657456 97.29667887 -204.51611328 103.57324219 C-208.28507946 105.59847345 -211.96493177 107.54085412 -216 109 C-215.09317751 100.11313959 -211.08298837 89.53317285 -204.23046875 83.421875 C-201.33383038 81.57533145 -198.32749054 80.0161967 -195.25 78.5 C-194.5580957 78.15743164 -193.86619141 77.81486328 -193.15332031 77.46191406 C-180.3690529 71.18923353 -167.42507615 65.22156764 -154.26953125 59.76953125 C-152.97362287 59.22886498 -151.67772436 58.68817505 -150.38183594 58.14746094 C-147.86979513 57.10036448 -145.35031216 56.07466161 -142.82519531 55.05957031 C-141.68791992 54.58745117 -140.55064453 54.11533203 -139.37890625 53.62890625 C-138.3638501 53.21713135 -137.34879395 52.80535645 -136.30297852 52.38110352 C-133.84125257 51.23874372 -133.84125257 51.23874372 -133.29272461 48.97631836 C-133.19612549 48.3241333 -133.09952637 47.67194824 -133 47 C-130.9375 44.75 -130.9375 44.75 -129 43 C-129 43.99 -129 44.98 -129 46 C-127.02 46 -125.04 46 -123 46 C-123.226875 45.443125 -123.45375 44.88625 -123.6875 44.3125 C-124 42 -124 42 -122.9375 39.375 C-120.46004865 36.33812415 -118.8755549 35.54257769 -115 35 C-114.236875 35.639375 -113.47375 36.27875 -112.6875 36.9375 C-109.72449136 39.21143687 -109.22124751 39.29649594 -105.6875 39 C-101.90359877 38.37553264 -98.88027701 37.11144143 -95.51171875 35.24609375 C-91.35806158 33.18541469 -86.98873285 31.6880747 -82.63452148 30.10668945 C-78.62270369 28.6422405 -78.62270369 28.6422405 -74.765625 26.8203125 C-73 26 -73 26 -69 26 C-69 25.34 -69 24.68 -69 24 C-68.35933594 23.81824219 -67.71867188 23.63648437 -67.05859375 23.44921875 C-66.19363281 23.19785156 -65.32867187 22.94648437 -64.4375 22.6875 C-63.59058594 22.44386719 -62.74367188 22.20023438 -61.87109375 21.94921875 C-58.48702987 20.83040579 -55.25976092 19.43039041 -52 18 C-48.85746876 16.65885784 -45.7097967 15.32991409 -42.5625 14 C-41.75490234 13.65710938 -40.94730469 13.31421875 -40.11523438 12.9609375 C-35.81390471 11.14474351 -31.49967275 9.40961179 -27.11889648 7.79492188 C-24.65411637 6.87023884 -22.21073332 5.89736054 -19.765625 4.921875 C-18.86199219 4.56609375 -17.95835937 4.2103125 -17.02734375 3.84375 C-15.15690903 3.10715123 -13.28975164 2.36218185 -11.42578125 1.609375 C-10.52730469 1.25875 -9.62882813 0.908125 -8.703125 0.546875 C-7.89520508 0.22557617 -7.08728516 -0.09572266 -6.25488281 -0.42675781 C-4 -1 -4 -1 0 0 Z " fill="#EEEFF2" transform="translate(332,100)"/>
<path d="M0 0 C4.7083158 -0.32848715 7.20408217 0.17739444 11 3 C15.54721703 7.06856261 19.67137631 11.87756469 23 17 C23 17.99 23 18.98 23 20 C23.66 20 24.32 20 25 20 C25.25049421 22.54115809 25.47583433 25.08055584 25.6875 27.625 C25.76033203 28.33785156 25.83316406 29.05070312 25.90820312 29.78515625 C26.30374047 34.85734109 25.37995181 37.42675926 23 42 C22.36991725 45.10492932 22.08664703 48.22105164 21.8125 51.375 C21.73064453 52.20644531 21.64878906 53.03789063 21.56445312 53.89453125 C21.36571437 55.92868087 21.18138416 57.96422949 21 60 C19.02 59.505 19.02 59.505 17 59 C17.02320313 58.24074219 17.04640625 57.48148438 17.0703125 56.69921875 C17.08835937 55.70535156 17.10640625 54.71148437 17.125 53.6875 C17.14820313 52.70136719 17.17140625 51.71523437 17.1953125 50.69921875 C17.20682639 47.77593473 17.20682639 47.77593473 15 45 C14.5570266 42.98958227 14.11913672 40.97790899 13.70703125 38.9609375 C12.17427159 32.54197714 10.01876446 26.27974441 8 20 C7.01 20 6.02 20 5 20 C0.23077758 29.01728112 0.23077758 29.01728112 -3.625 38.4375 C-5.22993015 42.59572812 -7.34441388 45.43592389 -10 49 C-10.33 49.99 -10.66 50.98 -11 52 C-12.0828125 51.505 -12.0828125 51.505 -13.1875 51 C-16.09118724 49.96757787 -17.95385151 49.59919099 -21 50 C-22.62514468 51.45833358 -22.62514468 51.45833358 -24 53 C-24.99 53 -25.98 53 -27 53 C-26.83886719 52.01386719 -26.67773438 51.02773437 -26.51171875 50.01171875 C-25.9320523 45.93558635 -25.81636136 41.92485183 -25.8125 37.8125 C-25.79413086 36.76545898 -25.79413086 36.76545898 -25.77539062 35.69726562 C-25.76472813 31.96183818 -25.92781844 29.16970065 -28 26 C-28.99 26 -29.98 26 -31 26 C-30.6390625 26.47308594 -30.278125 26.94617188 -29.90625 27.43359375 C-26.18989619 32.72939794 -25.02479421 36.58696193 -26 43 C-27.32326884 49.24771932 -29.09949494 56.4230371 -34.73828125 60.1484375 C-37.6745999 61.25399444 -40.12170641 61.19300638 -43.25 61.125 C-44.32765625 61.10695312 -45.4053125 61.08890625 -46.515625 61.0703125 C-47.74539063 61.03550781 -47.74539063 61.03550781 -49 61 C-49.33 60.34 -49.66 59.68 -50 59 C-49.01 58.505 -49.01 58.505 -48 58 C-47.45095762 55.56281949 -47.45095762 55.56281949 -47.18359375 52.609375 C-47.05919922 51.50722656 -46.93480469 50.40507813 -46.80664062 49.26953125 C-46.68482422 48.10808594 -46.56300781 46.94664063 -46.4375 45.75 C-46.18785785 43.47377567 -45.93661332 41.19772638 -45.68359375 38.921875 C-45.57587646 37.90706055 -45.46815918 36.89224609 -45.35717773 35.84667969 C-45.02433622 33.19395788 -44.56098383 30.61293268 -44 28 C-49.93317878 25.89603589 -55.82777121 24.24028238 -62 23 C-62 22.34 -62 21.68 -62 21 C-58.70454554 18.80303036 -55.78702822 18.08200806 -52 17 C-51.01 16.34 -50.02 15.68 -49 15 C-46.58984375 14.62109375 -46.58984375 14.62109375 -43.9375 14.4375 C-40.33239957 14.22366554 -40.33239957 14.22366554 -37 13 C-35.29636178 12.77377919 -33.58671299 12.59111527 -31.875 12.4375 C-30.96492188 12.35371094 -30.05484375 12.26992187 -29.1171875 12.18359375 C-28.41851562 12.12300781 -27.71984375 12.06242187 -27 12 C-26.67 10.02 -26.34 8.04 -26 6 C-22.16139123 5.35425273 -18.82176882 5.17964603 -15 6 C-10.43240697 9.63666131 -7.21754315 14.17368528 -4 19 C-4.60787167 15.63794437 -5.8167264 13.65485595 -7.9375 11 C-9.98365252 8.42597029 -11.61884896 5.9891578 -13 3 C-9.07613445 1.69204482 -7.14405218 1.26476494 -3 2 C1.29691365 5.82572999 4.81512819 10.22269229 8 15 C6.78625034 10.02362638 4.67026507 7.15693228 1.2421875 3.515625 C0 2 0 2 0 0 Z " fill="#C9A67E" transform="translate(394,65)"/>
<path d="M0 0 C1 1 1 1 1.09765625 2.84765625 C1.06510417 4.8984375 1.03255208 6.94921875 1 9 C0.071875 9.4125 -0.85625 9.825 -1.8125 10.25 C-4.92687186 11.95985121 -6.04219635 13.1611847 -8 16 C-8.66 16 -9.32 16 -10 16 C-10.28746094 16.72058594 -10.57492187 17.44117188 -10.87109375 18.18359375 C-11.24363281 19.11300781 -11.61617188 20.04242188 -12 21 C-12.32097656 21.83660156 -12.64195312 22.67320312 -12.97265625 23.53515625 C-15.50578259 29.40946715 -17.74211374 32.18566869 -23.71875 34.57421875 C-29.21863025 35.60073749 -32.90952818 33.05060896 -37.5 30.25 C-49.89617355 22.76320226 -49.89617355 22.76320226 -63.83984375 20.4375 C-69.18895346 21.83039656 -74.07356804 24.55255365 -79 27 C-80.28621103 27.53416414 -81.57670327 28.05842091 -82.875 28.5625 C-86.1077922 30.04958441 -88.52879786 31.81956502 -91.2265625 34.109375 C-93 35 -93 35 -95.4765625 34.90234375 C-98.61905585 33.77863483 -99.74655025 32.45864934 -101.75 29.8125 C-102.34296875 29.05582031 -102.9359375 28.29914063 -103.546875 27.51953125 C-105 25 -105 25 -106 19 C-100.72 19 -95.44 19 -90 19 C-90.66 18.67 -91.32 18.34 -92 18 C-91 14 -91 14 -90 10 C-95.28 9.67 -100.56 9.34 -106 9 C-106.66 10.98 -107.32 12.96 -108 15 C-109.32 14.67 -110.64 14.34 -112 14 C-112 13.34 -112 12.68 -112 12 C-112.66 12 -113.32 12 -114 12 C-112.380607 8.02512628 -110.52311779 5.48690668 -107 3 C-101.37876082 2.20224201 -95.45348444 1.95933154 -90.25 4.5 C-86.04603431 6.44029186 -82.54954031 6.27854328 -78 6 C-77.67 5.34 -77.34 4.68 -77 4 C-77.66 3.67 -78.32 3.34 -79 3 C-67.78 3 -56.56 3 -45 3 C-45.99 3.33 -46.98 3.66 -48 4 C-47.505 4.99 -47.505 4.99 -47 6 C-40.54714085 6.4033037 -35.91840123 5.64214341 -30 3 C-29.67 2.67 -29.34 2.34 -29 2 C-27.46359803 1.85515151 -25.92116865 1.77296059 -24.37890625 1.71875 C-22.97608398 1.66267578 -22.97608398 1.66267578 -21.54492188 1.60546875 C-20.56072266 1.57066406 -19.57652344 1.53585938 -18.5625 1.5 C-16.62614952 1.43125383 -14.68993487 1.35853125 -12.75390625 1.28125 C-11.89095947 1.25095703 -11.0280127 1.22066406 -10.13891602 1.18945312 C-6.54775241 0.87136809 -3.8229357 -0.16267811 0 0 Z " fill="#E0BA8D" transform="translate(371,148)"/>
<path d="M0 0 C4.7083158 -0.32848715 7.20408217 0.17739444 11 3 C15.54721703 7.06856261 19.67137631 11.87756469 23 17 C23 17.99 23 18.98 23 20 C23.66 20 24.32 20 25 20 C25.25049421 22.54115809 25.47583433 25.08055584 25.6875 27.625 C25.76033203 28.33785156 25.83316406 29.05070312 25.90820312 29.78515625 C26.30374047 34.85734109 25.37995181 37.42675926 23 42 C22.36991725 45.10492932 22.08664703 48.22105164 21.8125 51.375 C21.73064453 52.20644531 21.64878906 53.03789063 21.56445312 53.89453125 C21.36571437 55.92868087 21.18138416 57.96422949 21 60 C19.68 59.67 18.36 59.34 17 59 C17.02320313 58.24074219 17.04640625 57.48148438 17.0703125 56.69921875 C17.08835937 55.70535156 17.10640625 54.71148437 17.125 53.6875 C17.14820313 52.70136719 17.17140625 51.71523437 17.1953125 50.69921875 C17.20682639 47.77593473 17.20682639 47.77593473 15 45 C14.5570266 42.98958227 14.11913672 40.97790899 13.70703125 38.9609375 C12.17427159 32.54197714 10.01876446 26.27974441 8 20 C7.01 20 6.02 20 5 20 C3.89324381 22.1862225 2.78955622 24.37390948 1.6875 26.5625 C1.37876953 27.17158203 1.07003906 27.78066406 0.75195312 28.40820312 C-1.3279067 32.54602951 -3.2128583 36.72735662 -5 41 C-5.66 41 -6.32 41 -7 41 C-7.07476562 40.154375 -7.14953125 39.30875 -7.2265625 38.4375 C-8.15037243 30.4673751 -9.74250297 25.94721818 -15 20 C-15.86511669 18.69469158 -16.71987288 17.38243806 -17.5625 16.0625 C-19.68882612 12.81969167 -19.68882612 12.81969167 -22.8125 12.0625 C-23.8953125 12.0315625 -23.8953125 12.0315625 -25 12 C-25.042721 10.33388095 -25.04063832 8.66617115 -25 7 C-23.48112686 5.48112686 -22.11479195 5.53646234 -20 5.3125 C-16.44759468 5.3125 -15.23465175 5.80270394 -12.47265625 8.125 C-9.36286395 11.59264523 -6.5832751 15.12508734 -4 19 C-4.60787167 15.63794437 -5.8167264 13.65485595 -7.9375 11 C-9.98365252 8.42597029 -11.61884896 5.9891578 -13 3 C-9.07613445 1.69204482 -7.14405218 1.26476494 -3 2 C1.29691365 5.82572999 4.81512819 10.22269229 8 15 C6.78625034 10.02362638 4.67026507 7.15693228 1.2421875 3.515625 C0 2 0 2 0 0 Z " fill="#DBB78F" transform="translate(394,65)"/>
<path d="M0 0 C2.04464245 3.57812429 2.06345404 6.80715581 2.28515625 10.87890625 C2.55203009 14.29003915 3.55402696 17.34562681 4.5 20.625 C4.69938067 24.34677249 4.59548006 27.27035978 3.625 30.875 C3.45652938 35.92911853 5.58197634 38.57149283 8.12890625 42.82421875 C10.17033628 46.99431941 9.94892911 50.06088738 9.5 54.625 C7.19 54.625 4.88 54.625 2.5 54.625 C2.5 60.235 2.5 65.845 2.5 71.625 C1.18 70.305 -0.14 68.985 -1.5 67.625 C-1.5 66.965 -1.5 66.305 -1.5 65.625 C-2.16 65.625 -2.82 65.625 -3.5 65.625 C-3.314375 64.84125 -3.12875 64.0575 -2.9375 63.25 C-2.37456309 58.58566559 -2.90392396 54.26522271 -3.5 49.625 C-5.48 49.625 -7.46 49.625 -9.5 49.625 C-9.58243693 48.25105116 -9.6398309 46.87559402 -9.6875 45.5 C-9.72230469 44.73429687 -9.75710938 43.96859375 -9.79296875 43.1796875 C-9.5 40.625 -9.5 40.625 -8 37.84375 C-6.10827354 33.78442031 -6.15728197 30.65182427 -6.3125 26.25 C-6.32603516 25.51394531 -6.33957031 24.77789062 -6.35351562 24.01953125 C-6.38855131 22.22103257 -6.44234712 20.42291578 -6.5 18.625 C-7.16 18.625 -7.82 18.625 -8.5 18.625 C-9.3353125 17.078125 -9.3353125 17.078125 -10.1875 15.5 C-12.91865631 10.72531894 -15.86683725 6.71377517 -20.5 3.625 C-20.17 2.305 -19.84 0.985 -19.5 -0.375 C-12.7697918 -2.45524617 -6.42755851 -3.53515718 0 0 Z " fill="#0D0C13" transform="translate(425.5,66.375)"/>
<path d="M0 0 C0.495 7.92 0.495 7.92 1 16 C2.65 15.67 4.3 15.34 6 15 C5.690625 15.845625 5.38125 16.69125 5.0625 17.5625 C4.63725658 20.95141006 4.63725658 20.95141006 6.4921875 22.88671875 C7.77679685 24.11715783 9.09083369 25.31767154 10.43359375 26.484375 C10.95050781 26.98453125 11.46742188 27.4846875 12 28 C12 28.66 12 29.32 12 30 C10.865625 29.979375 9.73125 29.95875 8.5625 29.9375 C0.0142709 29.80828255 0.0142709 29.80828255 -7.8046875 32.70703125 C-9.77614957 34.71197097 -11.41036488 36.68428829 -13 39 C-14.5703125 41.26171875 -14.5703125 41.26171875 -16 43 C-16.66 43 -17.32 43 -18 43 C-18.33 36.4 -18.66 29.8 -19 23 C-20.32 22.34 -21.64 21.68 -23 21 C-24.703125 19.2734375 -24.703125 19.2734375 -26.25 17.375 C-26.77078125 16.74335938 -27.2915625 16.11171875 -27.828125 15.4609375 C-28.21484375 14.97882813 -28.6015625 14.49671875 -29 14 C-27 12 -27 12 -23.5234375 11.8046875 C-22.14049032 11.81798507 -20.75761346 11.84183768 -19.375 11.875 C-18.66859375 11.88402344 -17.9621875 11.89304687 -17.234375 11.90234375 C-15.48943902 11.92592397 -13.74467705 11.96179539 -12 12 C-11.7525 11.42765625 -11.505 10.8553125 -11.25 10.265625 C-9.80683801 7.64989389 -8.11783778 5.85226544 -6 3.75 C-5.29875 3.04359375 -4.5975 2.3371875 -3.875 1.609375 C-2 0 -2 0 0 0 Z " fill="#960506" transform="translate(372,293)"/>
<path d="M0 0 C1.4370809 -0.05422947 2.87475462 -0.09289723 4.3125 -0.125 C5.11300781 -0.14820312 5.91351563 -0.17140625 6.73828125 -0.1953125 C9 0 9 0 12 2 C12 2.66 12 3.32 12 4 C13.32 4.66 14.64 5.32 16 6 C15.01 6.495 15.01 6.495 14 7 C14.63228516 7.93972656 14.63228516 7.93972656 15.27734375 8.8984375 C15.82519531 9.71570313 16.37304688 10.53296875 16.9375 11.375 C17.48277344 12.18710938 18.02804687 12.99921875 18.58984375 13.8359375 C21.88258391 18.8890623 21.65903651 23.76781359 20.46875 29.60546875 C18.94564439 35.07706009 17.23362282 40.86362897 12.26171875 44.1484375 C9.3254001 45.25399444 6.87829359 45.19300638 3.75 45.125 C2.67234375 45.10695312 1.5946875 45.08890625 0.484375 45.0703125 C-0.33546875 45.04710937 -1.1553125 45.02390625 -2 45 C-2.33 44.34 -2.66 43.68 -3 43 C-2.01 42.505 -2.01 42.505 -1 42 C-0.46771148 39.54566612 -0.46771148 39.54566612 -0.21875 36.57421875 C-0.09886719 35.46755859 0.02101563 34.36089844 0.14453125 33.22070312 C0.26183594 32.05474609 0.37914062 30.88878906 0.5 29.6875 C0.7325541 27.39901437 0.9718672 25.11120296 1.21875 22.82421875 C1.32123047 21.80416748 1.42371094 20.78411621 1.52929688 19.7331543 C1.98098715 17.11039876 2.67092783 15.28596319 4 13 C7.42460063 17.97119447 9.14099085 21.1437042 9.0625 27.1875 C9.05347656 28.08855469 9.04445313 28.98960938 9.03515625 29.91796875 C9.02355469 30.60503906 9.01195312 31.29210937 9 32 C10.32 31.67 11.64 31.34 13 31 C12.74309819 28.93571843 12.46886954 26.87358906 12.1875 24.8125 C12.03667969 23.66394531 11.88585937 22.51539062 11.73046875 21.33203125 C10.99046556 17.9565087 9.89167053 15.85497504 8 13 C7.71125 12.154375 7.4225 11.30875 7.125 10.4375 C5.42106332 6.74563718 2.58403668 4.79201834 -1 3 C-0.67 2.01 -0.34 1.02 0 0 Z " fill="#DBB589" transform="translate(347,81)"/>
<path d="M0 0 C0.66 0.33 1.32 0.66 2 1 C1.01 1.66 0.02 2.32 -1 3 C-1.33 3.99 -1.66 4.98 -2 6 C4.93 6 11.86 6 19 6 C19 6.33 19 6.66 19 7 C18.01257813 7.02578125 17.02515625 7.0515625 16.0078125 7.078125 C14.72648437 7.13484375 13.44515625 7.1915625 12.125 7.25 C10.84882813 7.29640625 9.57265625 7.3428125 8.2578125 7.390625 C4.93617701 7.61998251 4.93617701 7.61998251 3.65625 9.90625 C3.4396875 10.5971875 3.223125 11.288125 3 12 C2.02418241 13.35113205 1.02970259 14.68946944 0 16 C0.66 16 1.32 16 2 16 C2.33 16.66 2.66 17.32 3 18 C3.99 18.33 4.98 18.66 6 19 C5.95875 18.21625 5.9175 17.4325 5.875 16.625 C6 14 6 14 8 12 C10.93359375 11.98828125 10.93359375 11.98828125 14.4375 12.3125 C15.59121094 12.41175781 16.74492187 12.51101562 17.93359375 12.61328125 C21 13 21 13 24 14 C23.47731534 16.76276177 22.89130413 19.3260876 22 22 C24.64 22 27.28 22 30 22 C30 22.33 30 22.66 30 23 C23.06934502 24.54014555 14.86665683 25.06985349 8 23 C9.91202643 27.78006608 12.02766235 31.79772953 15 36 C9.85187497 35.21998106 4.73783993 33.73783993 1 30 C0.195625 29.71125 -0.60875 29.4225 -1.4375 29.125 C-4.53140381 27.76670077 -5.28442617 26.90256545 -7 24 C-7.77230499 21.28221332 -8.23695902 18.53695294 -8.6875 15.75 C-8.81705078 15.00492188 -8.94660156 14.25984375 -9.08007812 13.4921875 C-9.39664262 11.66314822 -9.69967399 9.83177565 -10 8 C-11.65 7.67 -13.3 7.34 -15 7 C-11.77229437 4.84819625 -8.5809032 3.48175305 -5 2 C-4.071875 1.5875 -3.14375 1.175 -2.1875 0.75 C-1.465625 0.5025 -0.74375 0.255 0 0 Z " fill="#7F674E" transform="translate(257,144)"/>
<path d="M0 0 C0.33 0 0.66 0 1 0 C1 1.98 1 3.96 1 6 C1.74121094 5.90460938 2.48242188 5.80921875 3.24609375 5.7109375 C6 6 6 6 8.09765625 7.9765625 C9.07025391 9.28753906 9.07025391 9.28753906 10.0625 10.625 C10.74570312 11.53636719 11.42890625 12.44773437 12.1328125 13.38671875 C13.05707031 14.68029297 13.05707031 14.68029297 14 16 C14.67675781 16.93779297 14.67675781 16.93779297 15.3671875 17.89453125 C18.25776874 22.06161004 19.12771163 25.16620424 19.0625 30.1875 C19.05347656 31.08855469 19.04445313 31.98960938 19.03515625 32.91796875 C19.02355469 33.60503906 19.01195312 34.29210937 19 35 C19.66 35.33 20.32 35.66 21 36 C20.65066406 36.47050781 20.30132812 36.94101563 19.94140625 37.42578125 C19.48636719 38.04839844 19.03132813 38.67101562 18.5625 39.3125 C17.88380859 40.23482422 17.88380859 40.23482422 17.19140625 41.17578125 C15.82663692 43.09677101 15.82663692 43.09677101 15 46 C10.05 44.515 10.05 44.515 5 43 C5.33 42.34 5.66 41.68 6 41 C6.66 41 7.32 41 8 41 C9.54448775 35.16680074 11.167727 29.03136663 10 23 C8.55709431 20.64710849 6.94732586 18.99600901 5 17 C5 16.34 5 15.68 5 15 C4.01 14.67 3.02 14.34 2 14 C1.54625 13.175 1.0925 12.35 0.625 11.5 C-0.77933274 8.75147228 -0.77933274 8.75147228 -3.6875 8.1875 C-4.450625 8.125625 -5.21375 8.06375 -6 8 C-6 7.67 -6 7.34 -6 7 C-4.35 6.67 -2.7 6.34 -1 6 C-0.67 4.02 -0.34 2.04 0 0 Z " fill="#8A7053" transform="translate(368,71)"/>
<path d="M0 0 C3.41766375 0.0272107 4.72573721 0.46676269 7.421875 2.63671875 C11.96374442 7.61296159 15.49967248 12.95969133 19 18.6875 C19.66 18.6875 20.32 18.6875 21 18.6875 C21.3742382 23.05361234 20.33552636 25.054459 18 28.6875 C16.93006266 30.99605849 15.9691839 33.33376767 15 35.6875 C14.34 35.6875 13.68 35.6875 13 35.6875 C12.92523438 34.841875 12.85046875 33.99625 12.7734375 33.125 C11.84962757 25.1548751 10.25749703 20.63471818 5 14.6875 C4.13488331 13.38219158 3.28012712 12.06993806 2.4375 10.75 C0.31117388 7.50719167 0.31117388 7.50719167 -2.8125 6.75 C-3.534375 6.729375 -4.25625 6.70875 -5 6.6875 C-5.042721 5.02138095 -5.04063832 3.35367115 -5 1.6875 C-3.48112686 0.16862686 -2.11479195 0.22396234 0 0 Z " fill="#DCB78D" transform="translate(374,70.3125)"/>
<path d="M0 0 C1.98 0.66 3.96 1.32 6 2 C5.01997856 5.00688396 4.0143201 8.00451852 3 11 C2.68675781 11.93585938 2.37351562 12.87171875 2.05078125 13.8359375 C0.21545904 19.13153123 -1.71513261 23.46914843 -5 28 C-5.33 28.99 -5.66 29.98 -6 31 C-7.32 31 -8.64 31 -10 31 C-10.4125 29.9275 -10.825 28.855 -11.25 27.75 C-12.63739149 24.47734926 -14.27999908 22.34482838 -17 20 C-16.48050781 19.59910156 -15.96101563 19.19820313 -15.42578125 18.78515625 C-10.72620842 14.95426602 -7.81857895 11.42838904 -5.09765625 6.0234375 C-3.7657976 3.56826746 -2.12003954 1.80595961 0 0 Z " fill="#3E7BF1" transform="translate(317,351)"/>
<path d="M0 0 C1.23556641 0.01740234 1.23556641 0.01740234 2.49609375 0.03515625 C3.32238281 0.04417969 4.14867187 0.05320312 5 0.0625 C5.63808594 0.07410156 6.27617187 0.08570312 6.93359375 0.09765625 C7.32546875 0.98453125 7.71734375 1.87140625 8.12109375 2.78515625 C10.01577499 6.24784955 12.08789892 8.39424616 14.93359375 11.09765625 C17.64324443 13.7138707 18.16254104 15.62113834 18.30859375 19.28515625 C18.06448174 25.72759069 16.58353373 31.06696089 12.49609375 36.09765625 C10.15544202 37.92450638 8.84254683 38.77443924 5.93359375 39.09765625 C6.56169292 32.43980501 6.56169292 32.43980501 8.49609375 30.66015625 C10.57820772 28.39698889 10.27988928 26.24429147 10.16015625 23.2890625 C9.60117432 17.88235795 8.51897812 13.33492869 4.93359375 9.09765625 C4.93359375 8.43765625 4.93359375 7.77765625 4.93359375 7.09765625 C4.35609375 6.85015625 3.77859375 6.60265625 3.18359375 6.34765625 C0.63329405 4.93082308 -1.08426326 3.22138088 -3.06640625 1.09765625 C-2.06640625 0.09765625 -2.06640625 0.09765625 0 0 Z " fill="#DBB489" transform="translate(361.06640625,78.90234375)"/>
<path d="M0 0 C4.65040123 0.13286861 6.78728258 2.373864 9.86328125 5.52734375 C11 7 11 7 11 9 C9.865625 8.979375 8.73125 8.95875 7.5625 8.9375 C-0.9857291 8.80828255 -0.9857291 8.80828255 -8.8046875 11.70703125 C-10.77614957 13.71197097 -12.41036488 15.68428829 -14 18 C-15.5703125 20.26171875 -15.5703125 20.26171875 -17 22 C-17.66 22 -18.32 22 -19 22 C-19 17.05 -19 12.1 -19 7 C-17.02 7 -15.04 7 -13 7 C-13 6.34 -13 5.68 -13 5 C-12.14535156 4.72285156 -11.29070312 4.44570313 -10.41015625 4.16015625 C-9.30542969 3.79792969 -8.20070313 3.43570312 -7.0625 3.0625 C-5.96035156 2.70285156 -4.85820312 2.34320313 -3.72265625 1.97265625 C-1.11876525 1.26143332 -1.11876525 1.26143332 0 0 Z " fill="#787579" transform="translate(373,314)"/>
<path d="M0 0 C0.08074203 2.62561109 0.1403623 5.24875676 0.1875 7.875 C0.21263672 8.62136719 0.23777344 9.36773437 0.26367188 10.13671875 C0.29296875 12.3046875 0.29296875 12.3046875 0 16 C-3.20380017 18.13586678 -4.01939967 18.23132175 -7.6875 18.125 C-8.49574219 18.10695313 -9.30398438 18.08890625 -10.13671875 18.0703125 C-10.75160156 18.04710937 -11.36648438 18.02390625 -12 18 C-12 18.66 -12 19.32 -12 20 C-13.32 20 -14.64 20 -16 20 C-18.37346539 17.56120988 -20.06314698 14.81724076 -22 12 C-18.7 12 -15.4 12 -12 12 C-11.34 10.68 -10.68 9.36 -10 8 C-8.71816519 6.53657192 -7.3806979 5.12054571 -6 3.75 C-5.29875 3.04359375 -4.5975 2.3371875 -3.875 1.609375 C-2 0 -2 0 0 0 Z " fill="#F8F6F7" transform="translate(372,293)"/>
<path d="M0 0 C1.73443359 0.16048828 1.73443359 0.16048828 3.50390625 0.32421875 C4.65761719 0.42347656 5.81132812 0.52273437 7 0.625 C10.06640625 1.01171875 10.06640625 1.01171875 13.06640625 2.01171875 C12.54372159 4.77448052 11.95771038 7.33780635 11.06640625 10.01171875 C13.70640625 10.01171875 16.34640625 10.01171875 19.06640625 10.01171875 C19.06640625 10.34171875 19.06640625 10.67171875 19.06640625 11.01171875 C10.61888671 12.88894531 -0.22054375 13.64646628 -7.93359375 9.01171875 C-9.17578125 6.90234375 -9.17578125 6.90234375 -9.93359375 5.01171875 C-7.45859375 6.00171875 -7.45859375 6.00171875 -4.93359375 7.01171875 C-4.97484375 6.22796875 -5.01609375 5.44421875 -5.05859375 4.63671875 C-4.87240112 0.72667345 -3.86623266 0.01544434 0 0 Z " fill="#171312" transform="translate(267.93359375,155.98828125)"/>
<path d="M0 0 C0.19324053 4.15467129 0.09242143 7.3382625 -2 11 C-8.16011388 13.18453378 -15.74227954 12.31741483 -22 11 C-22 10.67 -22 10.34 -22 10 C-20.02 10 -18.04 10 -16 10 C-16.20625 8.88625 -16.4125 7.7725 -16.625 6.625 C-16.74875 5.42875 -16.8725 4.2325 -17 3 C-12.82235914 -1.17764086 -5.59802509 -0.09821097 0 0 Z " fill="#0F0C0D" transform="translate(354,156)"/>
<path d="M0 0 C2.31 0 4.62 0 7 0 C7.98043964 2.94131891 8.11621202 4.82501665 8.09765625 7.88671875 C8.09443359 8.82451172 8.09121094 9.76230469 8.08789062 10.72851562 C8.07951172 11.70498047 8.07113281 12.68144531 8.0625 13.6875 C8.05798828 14.67556641 8.05347656 15.66363281 8.04882812 16.68164062 C8.03704303 19.12115474 8.02059011 21.56054689 8 24 C5.1242188 23.41842798 4.03825274 23.03390584 1.765625 21.01953125 C-0.68362682 16.83087714 -0.44505537 13.44009914 -0.25 8.6875 C-0.23195313 7.85154297 -0.21390625 7.01558594 -0.1953125 6.15429688 C-0.14841126 4.10236772 -0.07667411 2.05103244 0 0 Z " fill="#CD030A" transform="translate(428,121)"/>
<path d="M0 0 C1.32 0.33 2.64 0.66 4 1 C4 5.62 4 10.24 4 15 C3.01 15.33 2.02 15.66 1 16 C0.484375 16.66 -0.03125 17.32 -0.5625 18 C-4.28402217 21.05355665 -8.31320444 20.82111467 -13 21 C-10.38058783 19.25372522 -8.96175123 18.61277612 -6 18 C-6 17.34 -6 16.68 -6 16 C-8.475 15.01 -8.475 15.01 -11 14 C-11 13.34 -11 12.68 -11 12 C-11.66 11.67 -12.32 11.34 -13 11 C-7.63809899 8.38592128 -2.96564796 6.50771472 3 6 C3 4.68 3 3.36 3 2 C1.02 2 -0.96 2 -3 2 C-2.01 1.34 -1.02 0.68 0 0 Z " fill="#8D8E92" transform="translate(328,99)"/>
<path d="M0 0 C2.31 0 4.62 0 7 0 C7 6.27 7 12.54 7 19 C2 21 2 21 -1 21 C-1.0269501 18.06243881 -1.04681474 15.12512445 -1.0625 12.1875 C-1.07087891 11.35412109 -1.07925781 10.52074219 -1.08789062 9.66210938 C-1.09111328 8.85966797 -1.09433594 8.05722656 -1.09765625 7.23046875 C-1.10289307 6.49207764 -1.10812988 5.75368652 -1.11352539 4.99291992 C-1 3 -1 3 0 0 Z " fill="#CB0000" transform="translate(325,360)"/>
<path d="M0 0 C0.33 0 0.66 0 1 0 C1.25049421 2.54115809 1.47583433 5.08055584 1.6875 7.625 C1.76033203 8.33785156 1.83316406 9.05070312 1.90820312 9.78515625 C2.30374047 14.85734109 1.37995181 17.42675926 -1 22 C-1.63008275 25.10492932 -1.91335297 28.22105164 -2.1875 31.375 C-2.26935547 32.20644531 -2.35121094 33.03789063 -2.43554688 33.89453125 C-2.63428563 35.92868087 -2.81861584 37.96422949 -3 40 C-4.32 39.67 -5.64 39.34 -7 39 C-6.96519531 37.87851563 -6.96519531 37.87851563 -6.9296875 36.734375 C-6.90261719 35.25710937 -6.90261719 35.25710937 -6.875 33.75 C-6.85179687 32.77546875 -6.82859375 31.8009375 -6.8046875 30.796875 C-7.00137219 27.9803502 -7.55431084 26.39050964 -9 24 C-8.34 24 -7.68 24 -7 24 C-6.8865625 23.29617187 -6.773125 22.59234375 -6.65625 21.8671875 C-5.93840458 18.73088668 -4.81152951 16.06069106 -3.5 13.125 C-1.58137919 8.64637505 -0.33060884 4.84892968 0 0 Z " fill="#4C7EEE" transform="translate(418,85)"/>
<path d="M0 0 C1.65 0 3.3 0 5 0 C7.55311917 4.78709845 7.40253336 9.71089889 7 15 C6.67 15.66 6.34 16.32 6 17 C2.30706264 16.3405469 1.29427421 15.47070566 -2 13 C-1.34 8.71 -0.68 4.42 0 0 Z " fill="#A00000" transform="translate(338,355)"/>
<path d="M0 0 C-0.99 0.66 -1.98 1.32 -3 2 C-2.55269531 2.3403125 -2.10539062 2.680625 -1.64453125 3.03125 C3.83383253 7.42328578 7.94766597 12.11445896 9.8125 19 C9.874375 19.99 9.93625 20.98 10 22 C10.07541016 23.01126953 10.07541016 23.01126953 10.15234375 24.04296875 C10.40258525 29.53827207 10.40258525 29.53827207 8.484375 31.73828125 C7.99453125 32.15464844 7.5046875 32.57101563 7 33 C6.92652344 31.33710937 6.92652344 31.33710937 6.8515625 29.640625 C6.77650785 28.17705935 6.70096119 26.71351888 6.625 25.25 C6.5940625 24.52039063 6.563125 23.79078125 6.53125 23.0390625 C6.29271144 17.69433298 6.29271144 17.69433298 4 13 C1.44480079 12.18828772 1.44480079 12.18828772 -1 12 C-1 10.68 -1 9.36 -1 8 C-1.66 7.67 -2.32 7.34 -3 7 C-3 6.34 -3 5.68 -3 5 C-6.00778521 3.99740493 -8.53820647 3.69685358 -11.6875 3.4375 C-12.68136719 3.35371094 -13.67523438 3.26992187 -14.69921875 3.18359375 C-15.83810547 3.09271484 -15.83810547 3.09271484 -17 3 C-17 2.67 -17 2.34 -17 2 C-15.95199219 1.90912109 -15.95199219 1.90912109 -14.8828125 1.81640625 C-13.97273438 1.73261719 -13.06265625 1.64882812 -12.125 1.5625 C-11.22007812 1.48128906 -10.31515625 1.40007812 -9.3828125 1.31640625 C-5.98306119 0.86496386 -3.56964143 -0.09393793 0 0 Z " fill="#BC9A75" transform="translate(362,78)"/>
<path d="M0 0 C3.50610028 1.61820013 6.08213062 4.07354208 8.4375 7.125 C8.4375 7.785 8.4375 8.445 8.4375 9.125 C2.8275 9.125 -2.7825 9.125 -8.5625 9.125 C-8.8925 7.475 -9.2225 5.825 -9.5625 4.125 C-3.44739209 0.16816547 -3.44739209 0.16816547 0 0 Z " fill="#F5EDED" transform="translate(375.5625,313.875)"/>
<path d="M0 0 C1 1 1 1 1.09765625 2.84765625 C1.06510417 4.8984375 1.03255208 6.94921875 1 9 C0.01 9 -0.98 9 -2 9 C-1.67 7.35 -1.34 5.7 -1 4 C-14.55782402 4.42016297 -14.55782402 4.42016297 -27.91015625 6.58984375 C-31.29976027 7.25509314 -34.5572862 7.12750792 -38 7 C-35.32917896 5.21945264 -32.95812156 4.16767956 -30 3 C-29.67 2.67 -29.34 2.34 -29 2 C-27.46359803 1.85515151 -25.92116865 1.77296059 -24.37890625 1.71875 C-22.97608398 1.66267578 -22.97608398 1.66267578 -21.54492188 1.60546875 C-20.56072266 1.57066406 -19.57652344 1.53585938 -18.5625 1.5 C-16.62614952 1.43125383 -14.68993487 1.35853125 -12.75390625 1.28125 C-11.89095947 1.25095703 -11.0280127 1.22066406 -10.13891602 1.18945312 C-6.54775241 0.87136809 -3.8229357 -0.16267811 0 0 Z " fill="#93785A" transform="translate(371,148)"/>
<path d="M0 0 C0.33 0.99 0.66 1.98 1 3 C2.98 3 4.96 3 7 3 C7.36504603 4.58086048 7.71660506 6.16483907 8.0625 7.75 C8.25972656 8.63171875 8.45695312 9.5134375 8.66015625 10.421875 C8.99825872 12.98679028 8.81158635 14.57091639 8 17 C5 17 5 17 2.33203125 15.421875 C0 13 0 13 -0.48828125 9.765625 C-0.43027344 8.60546875 -0.37226563 7.4453125 -0.3125 6.25 C-0.26738281 5.07953125 -0.22226562 3.9090625 -0.17578125 2.703125 C-0.11777344 1.81109375 -0.05976563 0.9190625 0 0 Z " fill="#AE0107" transform="translate(415,113)"/>
<path d="M0 0 C5.41428259 3.75991847 8.75412965 8.43759382 10 15 C10.06548492 16.58211573 10.08578381 18.16670081 10.0625 19.75 C10.05347656 20.54921875 10.04445313 21.3484375 10.03515625 22.171875 C10.02355469 22.77515625 10.01195312 23.3784375 10 24 C8.68 24.33 7.36 24.66 6 25 C5.87044922 23.74896484 5.87044922 23.74896484 5.73828125 22.47265625 C4.89050808 15.68269315 3.75641999 10.52366928 -0.07421875 4.8046875 C-0.37972656 4.20914063 -0.68523437 3.61359375 -1 3 C-0.67 2.01 -0.34 1.02 0 0 Z " fill="#A08261" transform="translate(350,88)"/>
<path d="M0 0 C11.22 0 22.44 0 34 0 C33.01 0.33 32.02 0.66 31 1 C31 1.66 31 2.32 31 3 C21.1 3.33 11.2 3.66 1 4 C1.33 3.01 1.66 2.02 2 1 C1.34 0.67 0.68 0.34 0 0 Z " fill="#8A7053" transform="translate(292,151)"/>
<path d="M0 0 C4.04430121 0.73532749 6.31457273 3.26950197 8.75 6.5 C8.75 7.16 8.75 7.82 8.75 8.5 C10.07 8.83 11.39 9.16 12.75 9.5 C9.78 10.16 6.81 10.82 3.75 11.5 C1.11 8.53 -1.53 5.56 -4.25 2.5 C-2.25 0.5 -2.25 0.5 0 0 Z " fill="#7A7074" transform="translate(347.25,304.5)"/>
<path d="M0 0 C2 1 2 1 3.1171875 4.03515625 C4.20241006 8.19022071 4.22656797 12.16773885 4.125 16.4375 C4.11597656 17.16904297 4.10695313 17.90058594 4.09765625 18.65429688 C4.07436153 20.43634298 4.0385019 22.21821759 4 24 C2.62437146 22.71034824 1.29233607 21.37310707 0 20 C0 19.34 0 18.68 0 18 C-0.66 18 -1.32 18 -2 18 C-1.835 17.195625 -1.67 16.39125 -1.5 15.5625 C-0.99794267 11.98534156 -0.96302997 8.65035308 -1.0625 5.05078125 C-1 3 -1 3 0 0 Z " fill="#486EDF" transform="translate(424,114)"/>
<path d="M0 0 C-0.33 3.3 -0.66 6.6 -1 10 C-2.32 10.33 -3.64 10.66 -5 11 C-5 10.34 -5 9.68 -5 9 C-7.475 8.01 -7.475 8.01 -10 7 C-10 6.34 -10 5.68 -10 5 C-10.66 4.67 -11.32 4.34 -12 4 C-10.56570999 3.32645501 -9.12742943 2.66140299 -7.6875 2 C-6.88699219 1.62875 -6.08648437 1.2575 -5.26171875 0.875 C-3 0 -3 0 0 0 Z " fill="#A1A3A7" transform="translate(327,106)"/>
<path d="M0 0 C3.18419421 1.37154686 4.97112596 2.86169983 7.125 5.5625 C9.20903634 8.21025666 9.20903634 8.21025666 12 10 C11.67 12.31 11.34 14.62 11 17 C10.01 17.33 9.02 17.66 8 18 C7.62875 16.4221875 7.62875 16.4221875 7.25 14.8125 C6.23318938 11.17261272 4.46333254 8.87388796 2 6 C2 5.34 2 4.68 2 4 C1.34 4 0.68 4 0 4 C0 2.68 0 1.36 0 0 Z " fill="#1D1715" transform="translate(371,82)"/>
<path d="M0 0 C0.66 0.66 1.32 1.32 2 2 C-2.29 2 -6.58 2 -11 2 C-12.42909641 5.57274103 -13.36738317 8.30973516 -14 12 C-15.32 11.67 -16.64 11.34 -18 11 C-18 10.34 -18 9.68 -18 9 C-18.66 9 -19.32 9 -20 9 C-16.09611355 -0.58226674 -9.49813379 -1.2309996 0 0 Z " fill="#9C8262" transform="translate(277,151)"/>
<path d="M0 0 C0.33 0.99 0.66 1.98 1 3 C2.65 2.67 4.3 2.34 6 2 C5.9375 4.25 5.9375 4.25 5 7 C2.75134851 8.86135162 0.72017052 9.78061322 -2 11 C-2.99 10.67 -3.98 10.34 -5 10 C-4.34 10 -3.68 10 -3 10 C-3 8.68 -3 7.36 -3 6 C-7.455 6.495 -7.455 6.495 -12 7 C-12 6.34 -12 5.68 -12 5 C-11.06027344 4.90912109 -11.06027344 4.90912109 -10.1015625 4.81640625 C-8.87566406 4.69072266 -8.87566406 4.69072266 -7.625 4.5625 C-6.81289063 4.48128906 -6.00078125 4.40007812 -5.1640625 4.31640625 C-2.95727195 4.10909886 -2.95727195 4.10909886 -1 3 C-0.67 2.01 -0.34 1.02 0 0 Z " fill="#BB1F1F" transform="translate(372,306)"/>
<path d="M0 0 C0.33 0 0.66 0 1 0 C1 1.98 1 3.96 1 6 C1.74636719 5.9071875 2.49273437 5.814375 3.26171875 5.71875 C6 6 6 6 8.01953125 7.96875 C8.61121094 8.8040625 9.20289063 9.639375 9.8125 10.5 C10.41707031 11.3353125 11.02164062 12.170625 11.64453125 13.03125 C12.31548828 14.00578125 12.31548828 14.00578125 13 15 C12.01 15.33 11.02 15.66 10 16 C9.4225 15.195625 8.845 14.39125 8.25 13.5625 C6.01873107 11.02133261 5.25543229 10.34879632 2 10 C1.67 10.66 1.34 11.32 1 12 C0.34 11.01 -0.32 10.02 -1 9 C-3.56282742 8.27034634 -3.56282742 8.27034634 -6 8 C-6 7.67 -6 7.34 -6 7 C-4.35 6.67 -2.7 6.34 -1 6 C-0.67 4.02 -0.34 2.04 0 0 Z " fill="#93795E" transform="translate(368,71)"/>
<path d="M0 0 C0.66 0 1.32 0 2 0 C3 2.5 3 2.5 3 6 C1.20354959 8.27608523 -0.76347686 10.137071 -2.921875 12.0703125 C-5.06021832 13.93364287 -5.06021832 13.93364287 -6.640625 16.2421875 C-7.31351562 17.11230469 -7.31351562 17.11230469 -8 18 C-8.66 18 -9.32 18 -10 18 C-10 13.38 -10 8.76 -10 4 C-9.67 4 -9.34 4 -9 4 C-8.34 6.97 -7.68 9.94 -7 13 C-1.73602215 8.69558538 -1.73602215 8.69558538 0.4375 2.5625 C0.293125 1.716875 0.14875 0.87125 0 0 Z " fill="#AFACAF" transform="translate(364,318)"/>
<path d="M0 0 C3.41427454 1.41280326 5.15408965 2.78269298 7 6 C7.26893778 8.69805322 7.37454702 11.12462306 7.3125 13.8125 C7.31572266 14.49892578 7.31894531 15.18535156 7.32226562 15.89257812 C7.27334078 20.59381094 6.4651092 24.53462735 5 29 C5.66 29.33 6.32 29.66 7 30 C6.01 30 5.02 30 4 30 C2.84183318 27.10458294 3.0373768 25.87291887 3.9375 22.8125 C5.39076267 17.5978516 6.34816239 12.74329908 3.87890625 7.71875 C2.99030508 6.32920936 2.06386522 4.96281468 1.09375 3.62890625 C0 2 0 2 0 0 Z " fill="#48392D" transform="translate(362,89)"/>
<path d="M0 0 C3.76583554 0.54745627 5.22721286 1.99131767 7.625 4.875 C8.21539062 5.57367188 8.80578125 6.27234375 9.4140625 6.9921875 C11 9 11 9 13 12 C12.625 14.1875 12.625 14.1875 12 16 C10.1819528 13.90041007 8.37049966 11.79571273 6.5625 9.6875 C6.04623047 9.09259766 5.52996094 8.49769531 4.99804688 7.88476562 C4.50498047 7.30791016 4.01191406 6.73105469 3.50390625 6.13671875 C3.04830322 5.60780029 2.5927002 5.07888184 2.12329102 4.53393555 C1 3 1 3 0 0 Z " fill="#342F34" transform="translate(378,69)"/>
<path d="M0 0 C-0.33 3.96 -0.66 7.92 -1 12 C-4.76687864 10.11656068 -5.79421646 9.30867531 -8 6 C-7.0479279 4.99403703 -6.08812654 3.99538437 -5.125 3 C-4.59132813 2.443125 -4.05765625 1.88625 -3.5078125 1.3125 C-2 0 -2 0 0 0 Z " fill="#DBDCDF" transform="translate(372,293)"/>
<path d="M0 0 C2.77422175 0.36744659 3.87938296 0.87913324 5.88671875 2.890625 C6.48097656 3.66921875 7.07523437 4.4478125 7.6875 5.25 C8.28949219 6.01828125 8.89148438 6.7865625 9.51171875 7.578125 C11.06783568 10.11038876 11.61096135 12.07442936 12 15 C8.94433539 12.03693129 6.02864172 8.98279839 3.1875 5.8125 C2.58292969 5.13832031 1.97835938 4.46414062 1.35546875 3.76953125 C0 2 0 2 0 0 Z " fill="#322821" transform="translate(391,66)"/>
<path d="M0 0 C2.31 0 4.62 0 7 0 C7.33 1.98 7.66 3.96 8 6 C5.69 6.66 3.38 7.32 1 8 C-0.35439668 5.29120665 -0.06501451 2.99066732 0 0 Z " fill="#950104" transform="translate(428,121)"/>
<path d="M0 0 C3.71599191 -0.20086443 4.77208445 -0.1519437 8 2 C8.1875 4.625 8.1875 4.625 8 7 C6.3125 7.8125 6.3125 7.8125 4 8 C1.25 5.5625 1.25 5.5625 -1 3 C-0.67 2.01 -0.34 1.02 0 0 Z " fill="#780001" transform="translate(334,315)"/>
<path d="M0 0 C0.97066406 0.08765625 1.94132812 0.1753125 2.94140625 0.265625 C5.4375 0.75 5.4375 0.75 7.4375 2.75 C4.15230525 3.84506492 1.70086585 3.84960608 -1.75 3.8125 C-3.38001953 3.79896484 -3.38001953 3.79896484 -5.04296875 3.78515625 C-5.87441406 3.77355469 -6.70585937 3.76195313 -7.5625 3.75 C-7.8925 3.09 -8.2225 2.43 -8.5625 1.75 C-5.06680461 -0.58046359 -4.05576743 -0.41043718 0 0 Z " fill="#AD8E6B" transform="translate(352.5625,122.25)"/>
<path d="M0 0 C2.31 0 4.62 0 7 0 C7 3.63 7 7.26 7 11 C6.67 11 6.34 11 6 11 C6 9.02 6 7.04 6 5 C3.69 5 1.38 5 -1 5 C-0.67 3.35 -0.34 1.7 0 0 Z " fill="#890000" transform="translate(325,360)"/>
<path d="M0 0 C1.32 0.33 2.64 0.66 4 1 C4 5.62 4 10.24 4 15 C1.5 12.6875 1.5 12.6875 -1 10 C-1 9.01 -1 8.02 -1 7 C0.32 6.67 1.64 6.34 3 6 C3 4.68 3 3.36 3 2 C1.02 2 -0.96 2 -3 2 C-2.01 1.34 -1.02 0.68 0 0 Z " fill="#88898C" transform="translate(328,99)"/>
<path d="M0 0 C1.65 0 3.3 0 5 0 C5.66 2.31 6.32 4.62 7 7 C4.69 6.67 2.38 6.34 0 6 C0 4.02 0 2.04 0 0 Z " fill="#7C0000" transform="translate(338,355)"/>
<path d="M0 0 C2.475 0.495 2.475 0.495 5 1 C5.33 1.99 5.66 2.98 6 4 C8.64 4.33 11.28 4.66 14 5 C12.68 5.33 11.36 5.66 10 6 C10 6.66 10 7.32 10 8 C8.68 8 7.36 8 6 8 C4.296875 6.25 4.296875 6.25 2.75 4 C2.22921875 3.2575 1.7084375 2.515 1.171875 1.75 C0.78515625 1.1725 0.3984375 0.595 0 0 Z " fill="#CACACC" transform="translate(350,305)"/>
<path d="M0 0 C1.65 0.33 3.3 0.66 5 1 C5 5 5 5 3.5 6.75 C3.005 7.1625 2.51 7.575 2 8 C1.01 7.67 0.02 7.34 -1 7 C-0.67 4.69 -0.34 2.38 0 0 Z " fill="#F0F1E6" transform="translate(355,156)"/>
<path d="M0 0 C0.33 0 0.66 0 1 0 C1 5.28 1 10.56 1 16 C-0.32 14.68 -1.64 13.36 -3 12 C-3 11.34 -3 10.68 -3 10 C-3.66 10 -4.32 10 -5 10 C-4.67 9.01 -4.34 8.02 -4 7 C-3.01 7 -2.02 7 -1 7 C-0.67 4.69 -0.34 2.38 0 0 Z " fill="#5B64D2" transform="translate(427,122)"/>
<path d="M0 0 C1.8125 0.5 1.8125 0.5 4 2 C6.73731898 6.89052388 7.34459841 11.48642545 7 17 C6.34 17.33 5.68 17.66 5 18 C4.89042969 17.20335938 4.78085937 16.40671875 4.66796875 15.5859375 C3.81008432 9.8527586 3.03978343 4.97419107 0 0 Z " fill="#3D3025" transform="translate(351,94)"/>
<path d="M0 0 C2 1 2 1 3 3 C6.14930893 4.04976964 8.38814456 4.10131595 11.6875 4.0625 C12.68136719 4.05347656 13.67523438 4.04445313 14.69921875 4.03515625 C15.45847656 4.02355469 16.21773438 4.01195312 17 4 C17 4.66 17 5.32 17 6 C11.39 6 5.78 6 0 6 C-0.33 4.35 -0.66 2.7 -1 1 C-0.67 0.67 -0.34 0.34 0 0 Z " fill="#D0CDD0" transform="translate(367,317)"/>
<path d="M0 0 C0.33 0 0.66 0 1 0 C1.32613618 4.67461851 0.70582788 7.16674383 -2 11 C-1.01 11.33 -0.02 11.66 1 12 C-0.65 12.66 -2.3 13.32 -4 14 C-3.46148032 8.72250715 -2.22656164 4.74354436 0 0 Z " fill="#C9DAFE" transform="translate(120,195)"/>
<path d="M0 0 C0.33 1.98 0.66 3.96 1 6 C-1.875 6.125 -1.875 6.125 -5 6 C-5.66 5.34 -6.32 4.68 -7 4 C-3.375 0 -3.375 0 0 0 Z " fill="#F1F2E9" transform="translate(337,160)"/>
<path d="M0 0 C0.33 1.65 0.66 3.3 1 5 C-1.8125 5.25 -1.8125 5.25 -5 5 C-6.875 3 -6.875 3 -8 1 C-5.10765685 0.17361624 -3.11257569 0 0 0 Z " fill="#480104" transform="translate(353,316)"/>
<path d="M0 0 C1.32 0 2.64 0 4 0 C4 2.31 4 4.62 4 7 C2.68 6.67 1.36 6.34 0 6 C0 5.34 0 4.68 0 4 C-0.66 4 -1.32 4 -2 4 C-1.34 2.68 -0.68 1.36 0 0 Z " fill="#C4BDB2" transform="translate(259,156)"/>
<path d="M0 0 C2.31 0 4.62 0 7 0 C7.33 1.32 7.66 2.64 8 4 C5.36 4.33 2.72 4.66 0 5 C0 3.35 0 1.7 0 0 Z " fill="#4B0208" transform="translate(427,117)"/>
<path d="M0 0 C2.78211944 0.37596209 4.5879284 0.67318459 6.8125 2.4375 C8 4 8 4 8 6 C8.99 6 9.98 6 11 6 C11.33 7.65 11.66 9.3 12 11 C8.19364503 7.79239749 4.45436433 4.59253891 1 1 C0.67 1.99 0.34 2.98 0 4 C0 2.68 0 1.36 0 0 Z " fill="#7A6249" transform="translate(370,81)"/>
<path d="M0 0 C3.09162264 1.38589981 4.49183541 2.49183541 7 5 C2.545 5.495 2.545 5.495 -2 6 C-1.34 4.02 -0.68 2.04 0 0 Z " fill="#F8F7F0" transform="translate(282,160)"/>
<path d="M0 0 C0.33 0.99 0.66 1.98 1 3 C2.98 3 4.96 3 7 3 C8.35439668 5.70879335 8.06501451 8.00933268 8 11 C7.6596875 10.071875 7.6596875 10.071875 7.3125 9.125 C5.62070165 6.38589791 4.00755839 5.94975528 1 5 C0.67 5.99 0.34 6.98 0 8 C0 5.36 0 2.72 0 0 Z " fill="#801130" transform="translate(415,113)"/>
<path d="M0 0 C1.98 0 3.96 0 6 0 C6.33 1.65 6.66 3.3 7 5 C6.01 5.495 6.01 5.495 5 6 C5 5.34 5 4.68 5 4 C3.02 4 1.04 4 -1 4 C-0.67 2.68 -0.34 1.36 0 0 Z " fill="#4E050F" transform="translate(417,112)"/>
<path d="M0 0 C3.17462943 2.40242227 5.85751741 4.61713276 8 8 C8 8.66 8 9.32 8 10 C4.18315774 8.44499019 1.80804268 5.96404505 -1 3 C-0.67 2.01 -0.34 1.02 0 0 Z " fill="#AF8F6C" transform="translate(350,88)"/>
<path d="M0 0 C1.65 0.33 3.3 0.66 5 1 C5.33 2.65 5.66 4.3 6 6 C4.35 5.67 2.7 5.34 1 5 C0.34 5.99 -0.32 6.98 -1 8 C-0.67 5.36 -0.34 2.72 0 0 Z " fill="#A00000" transform="translate(416,118)"/>
<path d="M0 0 C0.99 0 1.98 0 3 0 C3 2.31 3 4.62 3 7 C1.68 6.67 0.36 6.34 -1 6 C-1.625 4.125 -1.625 4.125 -2 2 C-1.34 1.34 -0.68 0.68 0 0 Z " fill="#B70000" transform="translate(341,365)"/>
<path d="M0 0 C0.66 0.33 1.32 0.66 2 1 C1.835 1.928125 1.67 2.85625 1.5 3.8125 C0.92251612 6.95621353 0.92251612 6.95621353 1 10 C-1.86177057 11.43088528 -3.93375773 10.59991697 -7 10 C-7 9.67 -7 9.34 -7 9 C-5.02 9 -3.04 9 -1 9 C-1.20625 7.88625 -1.4125 6.7725 -1.625 5.625 C-1.74875 4.42875 -1.8725 3.2325 -2 2 C-1.34 1.34 -0.68 0.68 0 0 Z " fill="#45463A" transform="translate(339,157)"/>
<path d="M0 0 C0.99 0 1.98 0 3 0 C3 1.32 3 2.64 3 4 C2.01 4 1.02 4 0 4 C0 4.99 0 5.98 0 7 C-1.32 6.67 -2.64 6.34 -4 6 C-1.125 1.125 -1.125 1.125 0 0 Z " fill="#A4C2FF" transform="translate(212,136)"/>
<path d="M0 0 C-1.65 1.98 -3.3 3.96 -5 6 C-5.99 5.67 -6.98 5.34 -8 5 C-7.625 3.0625 -7.625 3.0625 -7 1 C-4.53721199 -0.231394 -2.7204945 -0.07159196 0 0 Z " fill="#1B243B" transform="translate(413,65)"/>
<path d="M0 0 C1.32 0.33 2.64 0.66 4 1 C4.144375 1.9075 4.28875 2.815 4.4375 3.75 C4.86409473 6.21476956 5.35074221 8.58847107 6 11 C1.9957657 7.50912907 0.37328935 5.35048061 0 0 Z " fill="#C3A079" transform="translate(265,167)"/>
<path d="M0 0 C0.99 0.33 1.98 0.66 3 1 C2.21302675 4.41021743 1.12880057 7.68885166 0 11 C-0.33 11 -0.66 11 -1 11 C-1.02688151 9.35425434 -1.04634123 7.70838587 -1.0625 6.0625 C-1.07410156 5.14597656 -1.08570313 4.22945312 -1.09765625 3.28515625 C-1 1 -1 1 0 0 Z " fill="#3A72E3" transform="translate(275,216)"/>
<path d="M0 0 C0.33 0 0.66 0 1 0 C1 2.31 1 4.62 1 7 C2.65 6.67 4.3 6.34 6 6 C3.47211993 8.79872437 1.79588866 10.45773019 -2 11 C-1.855625 10.29875 -1.71125 9.5975 -1.5625 8.875 C-0.98521625 5.92443859 -0.48304859 2.96729849 0 0 Z " fill="#706D5A" transform="translate(354,156)"/>
<path d="M0 0 C1.33333333 2.66666667 2.66666667 5.33333333 4 8 C1.36 7.67 -1.28 7.34 -4 7 C-3.67 6.34 -3.34 5.68 -3 5 C-2.34 5 -1.68 5 -1 5 C-0.67 3.35 -0.34 1.7 0 0 Z " fill="#92775A" transform="translate(377,107)"/>
<path d="M0 0 C2.0625 0.4375 2.0625 0.4375 4 1 C4 1.66 4 2.32 4 3 C2.46875 4.2890625 2.46875 4.2890625 0.5 5.625 C-0.1496875 6.07101563 -0.799375 6.51703125 -1.46875 6.9765625 C-1.9740625 7.31429687 -2.479375 7.65203125 -3 8 C-1.125 1.125 -1.125 1.125 0 0 Z " fill="#392F27" transform="translate(399,84)"/>
<path d="M0 0 C-0.99 0.33 -1.98 0.66 -3 1 C-3.33 1.66 -3.66 2.32 -4 3 C-4.33 3.66 -4.66 4.32 -5 5 C-5.99 5.33 -6.98 5.66 -8 6 C-7.8125 3.625 -7.8125 3.625 -7 1 C-2.77108434 -1.38554217 -2.77108434 -1.38554217 0 0 Z " fill="#434348" transform="translate(237,154)"/>
<path d="M0 0 C3.14624993 -0.26218749 4.61837017 -0.24754367 7.3125 1.5 C8.1478125 2.2425 8.1478125 2.2425 9 3 C2.25 4.125 2.25 4.125 0 3 C0 2.01 0 1.02 0 0 Z " fill="#8AB0FF" transform="translate(203,143)"/>
<path d="M0 0 C0.57234375 0.21527344 1.1446875 0.43054687 1.734375 0.65234375 C0.49493224 1.52175869 -0.75769559 2.37239832 -2.015625 3.21484375 C-2.71171875 3.69050781 -3.4078125 4.16617188 -4.125 4.65625 C-6.265625 5.65234375 -6.265625 5.65234375 -8.53125 5.3046875 C-9.10359375 5.08941406 -9.6759375 4.87414063 -10.265625 4.65234375 C-9.02618224 3.78292881 -7.77355441 2.93228918 -6.515625 2.08984375 C-5.81953125 1.61417969 -5.1234375 1.13851562 -4.40625 0.6484375 C-2.265625 -0.34765625 -2.265625 -0.34765625 0 0 Z " fill="#1C2F5F" transform="translate(291.265625,48.34765625)"/>
<path d="M0 0 C1.98 0 3.96 0 6 0 C6.80967438 2.91482778 7.21845993 4.46113217 6.0625 7.3125 C5.5365625 8.1478125 5.5365625 8.1478125 5 9 C4.34 8.01 3.68 7.02 3 6 C3.875 3.3125 3.875 3.3125 5 1 C3.35 1.33 1.7 1.66 0 2 C0 1.34 0 0.68 0 0 Z " fill="#66070C" transform="translate(373,307)"/>
<path d="M0 0 C0.66 0.33 1.32 0.66 2 1 C-2.26311718 5.12989477 -5.28758534 5.61271765 -11 6 C-8.33441197 2.55041549 -5.08817247 2.05989657 -1 1 C-0.67 0.67 -0.34 0.34 0 0 Z " fill="#2E59B9" transform="translate(413,214)"/>
<path d="M0 0 C0.33 0.99 0.66 1.98 1 3 C2.65 3.33 4.3 3.66 6 4 C5.46375 4.12375 4.9275 4.2475 4.375 4.375 C1.5361714 5.12206016 -1.22223202 6.05303364 -4 7 C-2.79618552 4.50638429 -1.54571278 2.31856917 0 0 Z " fill="#D6E8FF" transform="translate(202,143)"/>
<path d="M0 0 C3.99500618 1.3697164 6.80009492 3.25722422 10 6 C7.36 5.67 4.72 5.34 2 5 C1.34 3.35 0.68 1.7 0 0 Z " fill="#A6C5FF" transform="translate(215,135)"/>
<path d="M0 0 C0.66 0.33 1.32 0.66 2 1 C0.90220176 2.15193623 -0.20349446 3.29634937 -1.3125 4.4375 C-1.92738281 5.07558594 -2.54226562 5.71367188 -3.17578125 6.37109375 C-5 8 -5 8 -8 9 C-6.4169423 4.7257442 -3.49431596 2.73468206 0 0 Z " fill="#131C37" transform="translate(253,69)"/>
<path d="M0 0 C2 1 2 1 4 3 C4.99 3.33 5.98 3.66 7 4 C7 4.66 7 5.32 7 6 C5.02 6 3.04 6 1 6 C0.67 4.02 0.34 2.04 0 0 Z " fill="#6F1114" transform="translate(353,315)"/>
<path d="M0 0 C0.99 0.33 1.98 0.66 3 1 C1.70700306 3.88437779 0.34058637 5.87219421 -2 8 C-2.99 7.67 -3.98 7.34 -5 7 C-4.34 6.67 -3.68 6.34 -3 6 C-1.95191959 4.02477154 -0.9479589 2.02518491 0 0 Z " fill="#8AB2FF" transform="translate(198,145)"/>
<path d="M0 0 C-3.16240582 2.10827055 -4.50657469 2.33817465 -8.1875 2.625 C-9.53908203 2.73714844 -9.53908203 2.73714844 -10.91796875 2.8515625 C-11.94857422 2.92503906 -11.94857422 2.92503906 -13 3 C-8.8341563 0.22277086 -4.9360889 -1.89849573 0 0 Z " fill="#565659" transform="translate(328,117)"/>
<path d="M0 0 C0.66 0.33 1.32 0.66 2 1 C1.34 2.65 0.68 4.3 0 6 C-0.99 5.67 -1.98 5.34 -3 5 C-3 4.34 -3 3.68 -3 3 C-3.66 2.67 -4.32 2.34 -5 2 C-2.625 0.9375 -2.625 0.9375 0 0 Z " fill="#B3B4B7" transform="translate(320,108)"/>
<path d="M0 0 C0.33 0 0.66 0 1 0 C1.36923077 7.50769231 1.36923077 7.50769231 -0.5 10 C-0.995 10.33 -1.49 10.66 -2 11 C-1 3.57142857 -1 3.57142857 0 0 Z " fill="#C7A47B" transform="translate(371,100)"/>
<path d="M0 0 C1.875 0.3125 1.875 0.3125 4 1 C4.66 1.99 5.32 2.98 6 4 C5.34 4 4.68 4 4 4 C3.67 4.66 3.34 5.32 3 6 C0 2.25 0 2.25 0 0 Z " fill="#33374D" transform="translate(391,66)"/>
<path d="M0 0 C1.32 0.33 2.64 0.66 4 1 C2.35 2.65 0.7 4.3 -1 6 C-1.66 5.67 -2.32 5.34 -3 5 C-2.01 3.35 -1.02 1.7 0 0 Z " fill="#121A32" transform="translate(282,466)"/>
<path d="M0 0 C3.625 0.1875 3.625 0.1875 7 1 C7.33 1.66 7.66 2.32 8 3 C4.37 3 0.74 3 -3 3 C-2.01 2.01 -1.02 1.02 0 0 Z " fill="#1B2D5B" transform="translate(256,287)"/>
<path d="M0 0 C0.66 0.33 1.32 0.66 2 1 C0 4 0 4 -1.9453125 4.51171875 C-2.66460937 4.56972656 -3.38390625 4.62773437 -4.125 4.6875 C-6.043125 4.8421875 -6.043125 4.8421875 -8 5 C-5.56159764 2.56159764 -3.14759102 1.37707107 0 0 Z " fill="#343235" transform="translate(297,127)"/>
<path d="M0 0 C2.31 0 4.62 0 7 0 C7.33 0.66 7.66 1.32 8 2 C5.69 2.66 3.38 3.32 1 4 C0.67 2.68 0.34 1.36 0 0 Z " fill="#B50002" transform="translate(428,125)"/>
<path d="M0 0 C2.31 0 4.62 0 7 0 C7 0.66 7 1.32 7 2 C4.69 2.66 2.38 3.32 0 4 C0 2.68 0 1.36 0 0 Z " fill="#B70000" transform="translate(324,365)"/>
<path d="M0 0 C0 0.33 0 0.66 0 1 C-0.94875 1.103125 -1.8975 1.20625 -2.875 1.3125 C-6.29107501 1.68539295 -6.29107501 1.68539295 -8 5 C-8.66 3.68 -9.32 2.36 -10 1 C-6.52674819 -0.1577506 -3.63932552 -0.06866652 0 0 Z " fill="#B1A7B9" transform="translate(391,67)"/>
</svg>
